<svg width="528" height="330" viewBox="0 0 528 330" fill="none" xmlns="http://www.w3.org/2000/svg">
<path d="M76.5517 283.5C76.5517 283.19 76.7586 282.879 77.0172 282.724C77.2759 282.569 77.5862 281.897 77.7414 281.276C77.8448 280.603 79.6552 275.535 81.7241 270C83.7931 264.466 86.1207 258.052 86.8966 255.776C87.6724 253.5 90.2069 246.517 92.5345 240.259C96.7759 228.828 98.6897 223.655 101.379 215.948C102.207 213.672 105.207 205.397 108.103 197.586C111 189.776 114.724 179.638 116.328 175.086C117.983 170.535 120.31 164.121 121.5 160.862C124.448 152.845 127.448 144.569 129.569 138.621C132.517 130.397 134.793 124.19 137.586 116.897C139.034 113.069 140.897 108.052 141.724 105.776C142.552 103.5 144.155 98.9483 145.345 95.6897C146.534 92.431 148.397 87.3104 149.483 84.3104C150.569 81.3104 152.172 76.9138 153.103 74.4828C154.034 72.0517 155.793 67.1897 157.034 63.6207C159.776 55.9655 161.017 52.5517 162.828 48.2586L164.172 45.0517L164.586 45.3103C164.793 45.4655 165.207 46.2931 165.466 47.2241C165.724 48.1552 167.379 52.7069 169.138 57.4138C170.897 62.1207 172.966 67.8104 173.793 70.0862C174.621 72.3621 176.172 76.8104 177.31 79.9138C182.328 93.8276 186.879 106.5 187.759 109.138C188.276 110.69 189.259 113.483 189.983 115.345C190.707 117.207 192.517 122.069 193.966 126.207C195.466 130.345 197.224 135.207 197.948 137.069C198.672 138.931 200.897 144.983 202.862 150.517C206.638 161.172 209.017 167.69 212.586 177.414C213.776 180.672 215.793 186.155 216.983 189.569C221.483 202.241 223.914 208.914 226.707 216.466C228.259 220.759 230.741 227.586 232.241 231.724C233.69 235.862 235.345 240.414 235.862 241.81C236.431 243.259 237.776 246.983 238.862 250.086C240 253.241 242.017 258.828 243.362 262.5C246.414 270.983 250.862 283.5 250.862 283.759C250.862 283.966 243.621 279.724 239.638 277.138L236.431 275.069L234.259 268.552C233.069 264.931 231.052 259.19 229.759 255.776C226.448 246.828 220.603 230.431 218.224 223.19C216.207 217.138 215.483 215.224 210.983 203.793C208.655 197.845 204.828 187.293 201.724 177.931C200.638 174.672 199.086 170.586 198.31 168.879C197.586 167.172 196.19 163.552 195.259 160.862C194.276 158.172 191.379 150.155 188.793 143.017C182.379 125.483 178.241 113.793 175.603 105.776C174.414 102.103 172.966 98.1207 172.397 96.9828C171.828 95.8448 170.948 93.6207 170.431 92.069C169.655 89.5345 164.586 76.5 164.224 76.1379C164.172 76.0862 163.603 77.3276 163.034 78.9828C158.224 92.1724 156.621 96.4138 155.276 99.3104C153.983 102.155 147 122.379 143.793 132.672C143.276 134.379 141.879 138.103 140.69 140.948C139.552 143.793 136.5 151.966 133.914 159.052C131.328 166.19 128.586 173.638 127.759 175.603C126.983 177.621 125.845 180.724 125.224 182.586C124.241 185.793 123.414 188.069 117.672 204.052C116.328 207.776 114.466 213 113.534 215.69C112.552 218.379 110.534 223.655 108.983 227.328C105.207 236.379 103.759 240.103 102.362 244.397C101.741 246.414 100.707 249.207 100.086 250.603C99.4138 252.052 98.3793 255.052 97.7586 257.328C96.5172 261.776 92.431 272.948 91.2414 275.276L90.5172 276.724L88.0345 277.966C86.6897 278.69 83.7414 280.293 81.4655 281.586C77.2241 284.069 76.5517 284.276 76.5517 283.5Z" fill="white"/>
<path d="M90.0001 276.466C90.0001 276.259 90.3104 275.534 90.7242 274.759C91.9139 272.431 96.0001 261.207 97.2415 256.81C97.8622 254.534 98.8966 251.534 99.5691 250.086C100.19 248.69 101.224 245.897 101.845 243.879C103.241 239.586 104.69 235.862 108.466 226.81C110.017 223.138 112.035 217.862 113.017 215.172C113.948 212.483 115.81 207.259 117.155 203.534C122.897 187.552 123.724 185.276 124.707 182.069C125.328 180.207 126.466 177.103 127.241 175.086C128.069 173.121 130.81 165.672 133.397 158.534C135.983 151.448 139.035 143.276 140.173 140.431C141.362 137.586 142.759 133.862 143.276 132.155C146.483 121.862 153.466 101.638 154.759 98.7931C155.586 96.9828 157.448 92.3276 158.845 88.4483C160.241 84.6207 161.897 80.1207 162.569 78.4138L163.707 75.4138L164.173 75.3103L164.69 75.2586L167.224 81.4655C168.569 84.8793 170.224 89.1724 170.793 91.0345C171.362 92.8966 172.293 95.3276 172.914 96.4655C173.483 97.6034 174.931 101.586 176.121 105.259C178.759 113.276 182.897 124.966 189.31 142.5C191.897 149.638 194.793 157.655 195.776 160.345C196.707 163.034 198.104 166.655 198.828 168.362C199.604 170.069 201.155 174.155 202.241 177.414C205.345 186.776 209.173 197.328 211.5 203.276C216 214.707 216.724 216.621 218.741 222.672C221.121 229.914 226.966 246.31 230.276 255.259C231.569 258.672 233.586 264.466 234.828 268.086L237 274.707L236.741 274.966L236.483 275.224L234.466 274.19C233.379 273.569 231 272.224 229.138 271.138L225.776 269.172L222.259 259.655C220.345 254.379 217.966 248.017 216.983 245.431C216.052 242.897 212.897 234.155 210.052 226.034C207.207 217.914 204.052 209.069 203.017 206.379C201.931 203.69 200.121 198.672 198.879 195.259C196.448 188.328 188.897 167.483 185.948 159.569C183 151.552 179.741 142.655 177.155 135.259C175.862 131.586 172.448 122.069 169.552 114.207L164.276 99.8276H163.914C163.448 99.8276 159 111.103 154.914 122.845C153.104 127.966 150.983 133.81 150.259 135.776C149.483 137.793 147.414 143.483 145.604 148.448C140.845 161.897 133.19 182.948 130.293 190.603C125.173 204.207 117.776 224.431 115.035 232.138C113.535 236.534 109.655 247.086 106.5 255.569L100.707 271.086L98.2242 272.379C96.8277 273.052 94.6035 274.293 93.2587 275.172C90.9311 276.672 90.0001 277.034 90.0001 276.466Z" fill="white"/>
<path d="M100.345 270.621C100.345 270.362 102.672 263.845 105.569 256.241C108.414 248.586 112.241 238.138 114.052 233.017C117.259 223.914 124.759 203.483 129.776 190.086C132.724 182.224 140.483 160.914 145.086 147.931C146.897 142.966 149.017 137.017 149.897 134.741C150.776 132.466 152.793 126.879 154.397 122.328C157.707 112.707 163.552 97.7586 163.966 97.7586C164.224 97.7586 173.121 121.759 177.672 134.741C180.259 142.138 183.517 151.034 186.466 159.052C189.414 166.966 196.966 187.81 199.397 194.741C200.638 198.155 202.448 203.172 203.534 205.862C204.569 208.552 207.724 217.397 210.569 225.517C213.414 233.638 216.569 242.379 217.5 244.914C221.069 254.276 226.5 269.172 226.397 269.276C226.345 269.328 224.328 268.241 221.948 266.897L217.603 264.362L216.828 262.655C216.466 261.724 215.172 258.414 214.086 255.259C212.948 252.155 211.138 247.138 210.052 244.138C208.034 238.655 204.155 227.741 200.948 218.793C199.966 216.103 198.207 211.345 197.069 208.19C195.879 205.086 193.81 199.345 192.466 195.517C189.207 186.466 185.69 176.741 183.621 171.207C181.81 166.293 178.138 156.052 175.862 149.741C175.034 147.466 173.172 142.345 171.724 138.362C170.276 134.379 168.052 128.276 166.81 124.759C165.621 121.241 164.483 118.241 164.276 118.086L163.966 117.776L163.655 118.086C163.345 118.345 161.483 123.31 158.017 132.931C157.086 135.621 155.483 140.069 154.448 142.759C153.466 145.448 151.345 151.293 149.741 155.69C148.138 160.086 146.121 165.517 145.293 167.69C144.414 169.914 143.069 173.638 142.241 175.966C141.414 178.345 139.966 182.483 138.931 185.172C136.086 192.983 132.31 203.276 128.638 213.362C126.776 218.483 125.017 223.241 124.707 223.966C124.448 224.69 122.638 229.552 120.724 234.828C118.81 240.103 116.224 247.293 114.931 250.862C113.638 254.431 111.931 259.241 111.052 261.569L109.5 265.862L107.897 266.793C107.017 267.362 104.948 268.552 103.345 269.431L100.345 271.086V270.621Z" fill="white"/>
<path d="M222.344 154.428V138.461H285.771V154.428H262.334V241H245.928V154.428H222.344ZM293.096 241V224.887L328.691 154.574H293.096V138.461H346.709V154.135L311.113 224.447H346.709V241H293.096ZM356.523 212.729V138.461H372.93V212.729C373.027 218.197 376.006 222.104 381.865 224.447C383.33 225.033 384.551 225.326 385.527 225.326V241.732C379.961 241.732 374.346 239.779 368.682 235.873C360.674 230.111 356.621 222.396 356.523 212.729ZM393.145 241.732V225.326C395.684 225.326 398.32 224.252 401.055 222.104C404.082 219.564 405.645 216.439 405.742 212.729V138.461H422.002V212.729C422.002 223.764 417.119 232.016 407.354 237.484C402.373 240.316 397.637 241.732 393.145 241.732ZM433.135 241V138.461H449.541V241H433.135ZM455.693 191.049L479.131 138.461H495.684L472.246 191.049L496.27 241H479.863L455.693 191.049ZM504.912 241V138.461H521.318V241H504.912Z" fill="white"/>
</svg>
